<?xml version="1.0" encoding="UTF-8"?>
<svg width="129px" height="73px" viewBox="0 0 129 73" version="1.1" xmlns="http://www.w3.org/2000/svg" xmlns:xlink="http://www.w3.org/1999/xlink">
    <title>logo-cisco</title>
    <defs>
        <polygon id="path-1" points="-3.89188734e-14 0 129.594269 0 129.594269 73.0604799 -3.89188734e-14 73.0604799"></polygon>
    </defs>
    <g id="logo-cisco" stroke="none" stroke-width="1" fill="none" fill-rule="evenodd" opacity="0.5">
        <g id="cisco-2" transform="translate(-0.225756, -0.263761)">
            <polygon id="Path" fill="#98A3D8" fill-rule="nonzero" points="42.2257564 65.2637612 38.2257564 65.2637612 38.2257564 44.2637612 42.2257564 44.2637612 42.2257564 65.2637612"></polygon>
            <g id="Group" transform="translate(64.797135, 36.530240) scale(-1, 1) rotate(-180.000000) translate(-64.797135, -36.530240) ">
                <g id="Clipped" transform="translate(-0.000000, 0.000000)">
                    <mask id="mask-2" fill="white">
                        <use xlink:href="#path-1"></use>
                    </mask>
                    <g id="a"></g>
                    <g id="Group" mask="url(#mask-2)" fill="#98A3D8" fill-rule="nonzero">
                        <g transform="translate(2.616641, 7.403936)" id="Shape">
                            <path d="M82.2562436,15.2050757 C82.0379103,15.3147636 80.3315513,16.3152506 77.7955256,16.3152506 C74.3676923,16.3152506 71.9895385,13.9552979 71.9895385,10.7693617 C71.9895385,7.67981797 74.2652436,5.218487 77.7955256,5.218487 C80.2878846,5.218487 82.0227949,6.19903073 82.2562436,6.32201418 L82.2562436,0.741224586 C81.5911667,0.558411348 79.779,0.00166193853 77.424359,0.00166193853 C71.4605,0.00166193853 66.2255385,4.07008747 66.2255385,10.7710236 C66.2255385,16.9783641 70.9616923,21.5320757 77.424359,21.5320757 C79.91,21.5320757 81.7540769,20.9337778 82.2562436,20.7858652 L82.2562436,15.2050757 Z M26.9121026,15.2050757 C26.6988077,15.3147636 24.9941282,16.3152506 22.4581026,16.3152506 C19.0235513,16.3152506 16.6470769,13.9552979 16.6470769,10.7693617 C16.6470769,7.67981797 18.9244615,5.218487 22.4581026,5.218487 C24.9504615,5.218487 26.6836923,6.19903073 26.9121026,6.32201418 L26.9121026,0.741224586 C26.2537436,0.558411348 24.4432564,0.00166193853 22.0751795,0.00166193853 C16.116359,0.00166193853 10.8881154,4.07008747 10.8881154,10.7710236 C10.8881154,16.9783641 15.6242692,21.5320757 22.076859,21.5320757 C24.5725769,21.5320757 26.4132949,20.9337778 26.9121026,20.7858652 L26.9121026,15.2050757 L26.9121026,15.2050757 Z M98.9352308,16.2371395 C95.7895513,16.2371395 93.4533846,13.7874421 93.4533846,10.7693617 C93.4533846,7.74463357 95.7895513,5.29659811 98.9352308,5.29659811 C102.077551,5.29659811 104.420436,7.74463357 104.420436,10.7693617 C104.420436,13.7874421 102.077551,16.2371395 98.9352308,16.2371395 M110.038321,10.7693617 C110.038321,4.82128369 105.397897,0.00166193853 98.9369103,0.00166193853 C92.4725641,0.00166193853 87.838859,4.82128369 87.838859,10.7710236 C87.838859,16.7074681 92.4742436,21.5320757 98.9352308,21.5320757 C105.397897,21.5320757 110.038321,16.7074681 110.038321,10.7693617 M59.6100385,16.4365721 C59.5311026,16.4615012 57.2990641,17.0714326 55.4650641,17.0714326 C53.3405128,17.0714326 52.1850256,16.3667707 52.1850256,15.3679456 C52.1850256,14.1015485 53.7435897,13.6594728 54.6152436,13.3869149 L56.0780769,12.9265579 C59.5210256,11.842974 61.0879872,9.51127423 61.0879872,6.97847991 C61.0879872,1.75500709 56.4458846,0 52.3882436,0 C49.5683846,0 46.9265513,0.515200946 46.6662308,0.568382979 L46.6662308,5.35476596 C47.1331282,5.23843026 49.3567692,4.5803026 51.6727821,4.5803026 C54.3112564,4.5803026 55.5238462,5.34479433 55.5238462,6.52144681 C55.5238462,7.57511584 54.4741667,8.18338534 53.1591282,8.59222222 C52.8400256,8.69858629 52.3563333,8.84816076 52.0271538,8.95452482 C49.0746154,9.87856265 46.6124872,11.5970071 46.6124872,15.0372199 C46.6124872,18.926156 49.5549487,21.5370615 54.4422564,21.5370615 C57.0236282,21.5370615 59.4521667,20.9171584 59.6100385,20.8756099 L59.6100385,16.438234 L59.6100385,16.4365721 Z"></path>
                            <path d="M5.26519231,43.5078889 C5.26519231,44.9404799 4.08283333,46.1021749 2.6334359,46.1021749 C1.18403846,46.1021749 -6.80706118e-14,44.9404799 -6.80706118e-14,43.5095508 L-6.80706118e-14,38.0500827 C0.0360722385,36.636958 1.2040945,35.5099673 2.63259615,35.5099673 C4.06109781,35.5099673 5.22912007,36.636958 5.26519231,38.0500827 L5.26519231,43.5078889 L5.26519231,43.5078889 Z M19.7238974,50.670844 C19.7238974,52.1095947 18.545244,53.2759326 17.0913013,53.2759326 C15.6373586,53.2759326 14.4587051,52.1095947 14.4587051,50.670844 L14.4587051,38.0500827 C14.4587051,36.611332 15.6373586,35.4449941 17.0913013,35.4449941 C18.545244,35.4449941 19.7238974,36.611332 19.7238974,38.0500827 L19.7238974,50.6725059 L19.7238974,50.670844 Z M34.1842821,60.4729574 C34.1842821,61.9055485 33.0019231,63.0689054 31.5525256,63.0689054 C30.1014487,63.0689054 28.9190897,61.9055485 28.9190897,60.4729574 L28.9190897,32.8631726 C28.955162,31.4500478 30.1231842,30.3230571 31.5516859,30.3230571 C32.9801876,30.3230571 34.1482098,31.4500478 34.1842821,32.8631726 L34.1842821,60.4729574 L34.1842821,60.4729574 Z M48.6429872,50.670844 C48.6429872,52.1095947 47.4643337,53.2759326 46.010391,53.2759326 C44.5564483,53.2759326 43.3777949,52.1095947 43.3777949,50.670844 L43.3777949,38.0500827 C43.3777949,36.611332 44.5564483,35.4449941 46.010391,35.4449941 C47.4643337,35.4449941 48.6429872,36.611332 48.6429872,38.0500827 L48.6429872,50.6725059 L48.6429872,50.670844 Z M63.0865775,43.5078889 C63.0875052,44.9391074 61.916266,46.1003403 60.4699359,46.1021755 C59.0206554,46.1031013 57.843732,44.9436778 57.8381795,43.5095508 L57.8381795,38.0500827 C57.8381795,36.6159213 59.0130733,35.4533038 60.4623782,35.4533038 C61.9116831,35.4533038 63.0865775,36.6159213 63.0865775,38.0500827 L63.0865775,43.5078889 L63.0865775,43.5078889 Z M77.552,50.670844 C77.5159864,52.0794204 76.3517066,53.2027548 74.9278013,53.2027548 C73.503896,53.2027548 72.3396162,52.0794204 72.3036026,50.670844 L72.3036026,38.0500827 C72.3036026,36.6159213 73.4784963,35.4533038 74.9278013,35.4533038 C76.3771062,35.4533038 77.552,36.6159213 77.552,38.0500827 L77.552,50.6725059 L77.552,50.670844 Z M92.0207821,60.4729574 C92.0207821,61.9071189 90.8458883,63.0697364 89.3965833,63.0697364 C87.9472784,63.0697364 86.7723846,61.9071189 86.7723846,60.4729574 L86.7723846,32.8631726 C86.7300918,31.9082891 87.2208056,31.0074726 88.0501532,30.5175387 C88.8795008,30.0276048 89.9136659,30.0276048 90.7430135,30.5175387 C91.5723611,31.0074726 92.0630749,31.9082891 92.0207821,32.8631726 L92.0207821,60.4729574 L92.0207821,60.4729574 Z M106.486205,50.670844 C106.486205,52.1050969 105.312244,53.2701158 103.829256,53.2701158 C102.380144,53.2691984 101.205897,52.1064775 101.205897,50.6725059 L101.205897,38.0500827 C101.205897,36.609182 102.381538,35.447487 103.829256,35.447487 C105.312244,35.447487 106.486205,36.609182 106.486205,38.0500827 L106.486205,50.6725059 L106.486205,50.670844 Z M120.924756,43.5078889 C120.924756,44.9434271 119.748735,46.1071608 118.298038,46.1071608 C116.847342,46.1071608 115.671321,44.9434271 115.671321,43.5078889 L115.671321,38.0500827 C115.671321,36.609182 116.848641,35.4458251 118.298038,35.4458251 C119.745756,35.4458251 120.923077,36.609182 120.923077,38.0500827 L120.923077,43.5078889 L120.924756,43.5078889 Z"></path>
                            <path d="M117.889923,3.109487 L117.889923,2.78374704 L116.952769,2.78374704 L116.952769,0.372274232 L116.566487,0.372274232 L116.566487,2.78208511 L115.625974,2.78208511 L115.625974,3.109487 L117.889923,3.109487 L117.889923,3.109487 Z M118.086423,3.109487 L118.689359,3.109487 L119.517346,0.864208038 L119.530782,0.864208038 L120.331897,3.10782506 L120.923077,3.10782506 L120.923077,0.372274232 L120.528397,0.372274232 L120.528397,2.61589125 L120.514962,2.61589125 L119.675218,0.372274232 L119.310769,0.372274232 L118.491179,2.61589125 L118.472705,2.61589125 L118.472705,0.372274232 L118.086423,0.372274232 L118.086423,3.109487 L118.086423,3.109487 Z"></path>
                        </g>
                    </g>
                </g>
            </g>
        </g>
    </g>
</svg>