<?xml version="1.0" encoding="UTF-8"?>
<svg width="159px" height="112px" viewBox="0 0 159 112" version="1.1" xmlns="http://www.w3.org/2000/svg" xmlns:xlink="http://www.w3.org/1999/xlink">
    <title>logo-salesforce</title>
    <g id="logo-salesforce" stroke="none" stroke-width="1" fill="none" fill-rule="evenodd" opacity="0.5">
        <g id="salesforce-2" transform="translate(0.000000, 1.000000)" fill-rule="nonzero">
            <path d="M66.1662823,12.1062595 C71.2942312,6.77723846 78.4333153,3.47203897 86.3288829,3.47203897 C96.8247928,3.47203897 105.981856,9.30935686 110.858492,17.9750086 C115.096264,16.0865953 119.787003,15.0360305 124.72221,15.0360305 C143.652601,15.0360305 159,30.4766983 159,49.5225909 C159,68.570706 143.652601,84.0113738 124.72221,84.0113738 C122.454797,84.012693 120.192932,83.7879054 117.97036,83.3403648 C113.676087,90.9803744 105.49276,96.1423973 96.099982,96.1423973 C92.167955,96.1423973 88.4488829,95.2366065 85.1375766,93.6258357 C80.7842553,103.83892 70.6418378,111 58.8209279,111 C46.5109219,111 36.0196276,103.231249 31.9925826,92.3358856 C30.2327598,92.7086155 28.4094324,92.9029176 26.5385165,92.9029176 C11.882027,92.9030763 0,80.9301614 0,66.1582802 C0,56.259191 5.33851652,47.6159221 13.2703724,42.9917225 C11.6373994,39.2441047 10.7290781,35.1077239 10.7290781,30.7589443 C10.7290781,13.7710031 24.5566667,0 41.6118438,0 C51.6251832,0 60.5242492,4.74849587 66.1662823,12.1062595" id="Path" fill="#98A3D8"></path>
            <path d="M24.0356909,58.1142875 C23.9366818,58.3574855 24.0717518,58.4082941 24.1032259,58.450486 C24.4002533,58.6534233 24.7020255,58.7994609 25.0058538,58.9621376 C26.6173618,59.7654187 28.1390341,60 29.7302974,60 C32.9713437,60 34.9834749,58.3806613 34.9834749,55.7738232 L34.9834749,55.7231631 C34.9834749,53.3128741 32.7125915,52.4376884 30.5810483,51.805552 L30.3042656,51.7210196 C28.6971861,51.2304639 27.310742,50.8078017 27.310742,49.8140626 L27.310742,49.7613226 C27.310742,48.9113927 28.1210036,48.285496 29.3769645,48.285496 C30.7724238,48.285496 32.4290078,48.7210832 33.4958074,49.2749268 C33.4958074,49.2749268 33.808651,49.4652362 33.9234763,49.1798463 C33.9864245,49.0275691 34.5267044,47.6618278 34.5830099,47.5138588 C34.6437439,47.3531135 34.5357196,47.2347086 34.425481,47.1712721 C33.2077953,46.4756993 31.5241656,46 29.7821743,46 L29.4581013,46.0020799 C26.4916234,46.0020799 24.4209724,47.6850036 24.4209724,50.097224 L24.4209724,50.1480326 C24.4209724,52.6912857 26.7054578,53.5158114 28.8460162,54.0908994 L29.1903338,54.1902882 C30.750123,54.6405832 32.0938635,55.0274417 32.0938635,56.059213 L32.0938635,56.1100216 C32.0938635,57.0529522 31.2206536,57.7547646 29.8115924,57.7547646 C29.2646698,57.7547646 27.5203061,57.7442166 25.6364439,56.6256845 C25.4090076,56.5008914 25.2763101,56.4101193 25.1007508,56.3107305 C25.0085426,56.2557621 24.7766778,56.1605331 24.6754544,56.4481514 L24.0356909,58.1142875 L24.0356909,58.1142875 Z M71.4838382,58.1142875 C71.3848291,58.3574855 71.519899,58.4082941 71.5513732,58.450486 C71.8484006,58.6534233 72.1501728,58.7994609 72.453843,58.9621376 C74.0653509,59.7654187 75.5871813,60 77.1782865,60 C80.4193329,60 82.4316222,58.3806613 82.4316222,55.7738232 L82.4316222,55.7231631 C82.4316222,53.3128741 80.1605806,52.4376884 78.0290374,51.805552 L77.7522547,51.7210196 C76.1451753,51.2304639 74.758573,50.8078017 74.758573,49.8140626 L74.758573,49.7613226 C74.758573,48.9113927 75.5688346,48.285496 76.8247954,48.285496 C78.2202547,48.285496 79.8768388,48.7210832 80.9437966,49.2749268 C80.9437966,49.2749268 81.2566401,49.4652362 81.3713072,49.1798463 C81.4342555,49.0275691 81.9745353,47.6618278 82.0308409,47.5138588 C82.091733,47.3531135 81.9835506,47.2347086 81.873312,47.1712721 C80.6556262,46.4756993 78.9719966,46 77.2300053,46 L76.9057741,46.0020799 C73.9392962,46.0020799 71.8686452,47.6850036 71.8686452,50.097224 L71.8686452,50.1480326 C71.8686452,52.6912857 74.1531306,53.5158114 76.293689,54.0908994 L76.6380066,54.1902882 C78.1977958,54.6405832 79.5439087,55.0274417 79.5439087,56.059213 L79.5439087,56.1100216 C79.5439087,57.0529522 78.6683264,57.7547646 77.2592652,57.7547646 C76.7125007,57.7547646 74.968137,57.7442166 73.0842749,56.6256845 C72.8568386,56.5008914 72.7219268,56.414279 72.5509541,56.3107305 C72.4922762,56.2747782 72.2177078,56.1753894 72.1231272,56.4481514 L71.4838382,58.1142875 L71.4838382,58.1142875 Z M103.875481,53.008171 C103.875481,54.4817692 103.582882,55.6423448 103.006699,56.4627106 C102.43716,57.2746084 101.575179,57.6699351 100.373468,57.6699351 C99.1693841,57.6699351 98.3118322,57.2766883 97.7513077,56.4627106 C97.1839822,55.6445732 96.8961282,54.4817692 96.8961282,53.008171 C96.8961282,51.5368012 97.1839822,50.378157 97.7513077,49.5662592 C98.3118322,48.7629781 99.1693841,48.3718112 100.373468,48.3718112 C101.575337,48.3718112 102.437318,48.7629781 103.009072,49.5662592 C103.58304,50.3780084 103.875481,51.5366527 103.875481,53.008171 M106.580992,50.2766883 C106.315281,49.432998 105.901214,48.688845 105.349863,48.0694851 C104.798353,47.4478968 104.100703,46.9490216 103.272253,46.5853389 C102.446175,46.2238847 101.469527,46.0399635 100.373468,46.0399635 C99.275036,46.0399635 98.2982303,46.2238847 97.4721525,46.5853389 C96.6438605,46.9490216 95.9462099,47.4480453 95.3924864,48.0694851 C94.8433495,48.6910735 94.4291244,49.4352265 94.1613569,50.2766883 C93.8980179,51.1159217 93.7651622,52.0334479 93.7651622,53.008171 C93.7651622,53.982894 93.8980179,54.9025001 94.1613569,55.7396536 C94.4291244,56.5811155 94.8411352,57.325417 95.3948588,57.9468568 C95.9462099,58.5684452 96.6462329,59.0652405 97.4723107,59.4182266 C98.3004445,59.7713613 99.275036,59.9509742 100.373626,59.9509742 C101.469686,59.9509742 102.444277,59.7713613 103.272411,59.4182266 C104.098489,59.0652405 104.798353,58.5682966 105.350021,57.9468568 C105.901372,57.3273484 106.315439,56.5831954 106.58115,55.7396536 C106.846862,54.9004202 106.979559,53.9806656 106.979559,53.008171 C106.979559,52.0356764 106.846545,51.1159217 106.580992,50.2766883 M128.79747,57.2763912 C128.707476,57.0290335 128.453152,57.122034 128.453152,57.122034 C128.05933,57.2637633 127.640518,57.394796 127.194977,57.4603124 C126.742477,57.5256802 126.245059,57.5597012 125.71158,57.5597012 C124.401844,57.5597012 123.361932,57.1939386 122.616991,56.4708816 C121.869678,55.7478246 121.451024,54.5787809 121.455453,52.9973259 C121.46004,51.5576001 121.829031,50.4750202 122.493151,49.6506431 C123.152684,48.8304257 124.156536,48.4095462 125.49569,48.4095462 C126.612152,48.4095462 127.462903,48.530031 128.353985,48.7943249 C128.353985,48.7943249 128.567819,48.8809372 128.669043,48.6188718 C128.905336,48.0014432 129.080896,47.5596163 129.333005,46.8809797 C129.405127,46.6885903 129.229567,46.6061378 129.166461,46.5828134 C128.815342,46.4538605 127.98705,46.2446836 127.361363,46.1558428 C126.776165,46.0713103 126.091959,46.0268899 125.331202,46.0268899 C124.194336,46.0268899 123.181628,46.2087313 122.315219,46.5724139 C121.450866,46.9338682 120.717155,47.4327433 120.136544,48.0544802 C119.555775,48.6760686 119.114662,49.420073 118.819849,50.2615349 C118.52725,51.1007683 118.378736,52.0226028 118.378736,52.9973259 C118.378736,55.1051403 118.984179,56.8090114 120.179406,58.0564965 C121.376688,59.3081413 123.175143,59.9444374 125.520521,59.9444374 C126.906965,59.9444374 128.32947,59.680292 129.351352,59.301753 C129.351352,59.301753 129.547156,59.2129123 129.46159,58.9995755 L128.79747,57.2763912 L128.79747,57.2763912 Z M133.531087,51.5965236 C133.659356,50.7783862 133.900236,50.0975211 134.271599,49.567002 C134.832124,48.7614924 135.687303,48.3196655 136.889331,48.3196655 C138.091359,48.3196655 138.885804,48.7635723 139.455186,49.567002 C139.83335,50.0975211 139.99768,50.8080988 140.063001,51.5965236 L133.531087,51.5965236 Z M142.639927,49.7972749 C142.410434,48.9832973 141.840895,48.1608515 141.467317,47.7845409 C140.877533,47.1883569 140.301508,46.7719343 139.729754,46.5392843 C138.982441,46.2390382 138.086614,46.0404092 137.10538,46.0404092 C135.96203,46.0404092 134.924332,46.2201706 134.082596,46.5921728 C133.238646,46.9643236 132.529766,47.4718154 131.97367,48.1039518 C131.417574,48.7338597 130.999079,49.4844009 130.733367,50.3364107 C130.4656,51.1842608 130.33053,52.1081752 130.33053,53.0826011 C130.33053,54.0742604 130.470187,54.9981748 130.746969,55.8289401 C131.026124,56.6662422 131.471665,57.404007 132.074894,58.0148988 C132.675749,58.6302475 133.450108,59.112335 134.377409,59.4482363 C135.298068,59.7823549 136.416744,59.9557282 137.701807,59.9535209 C140.346584,59.9450316 141.739671,59.3911881 142.313639,59.0930218 C142.415021,59.0402818 142.511816,58.9472813 142.390031,58.6809075 L141.79139,57.1056921 C141.701554,56.8711108 141.447072,56.9577232 141.447072,56.9577232 C140.791967,57.1860648 139.860396,57.5962477 137.688205,57.5920879 C136.268072,57.5900081 135.214558,57.1967613 134.555025,56.5814126 C133.877619,55.9515047 133.546745,55.0253619 133.488225,53.7188972 L142.646569,53.7273653 C142.646569,53.7273653 142.887291,53.7232056 142.912281,53.5031835 C142.921296,53.4104801 143.227497,51.7360244 142.639927,49.7972749 M60.1860427,51.5965236 C60.316526,50.7783862 60.5551917,50.0975211 60.926555,49.567002 C61.4869214,48.7614924 62.342259,48.3196655 63.5441286,48.3196655 C64.7459982,48.3196655 65.5406018,48.7635723 66.1121976,49.567002 C66.4879895,50.0975211 66.6523193,50.8080988 66.71764,51.5965236 L60.1860427,51.5965236 L60.1860427,51.5965236 Z M69.29251,49.7972749 C69.0630176,48.9832973 68.4958503,48.1608515 68.1222727,47.7845409 C67.5324883,47.1883569 66.9563058,46.7719343 66.38471,46.5392843 C65.6373967,46.2390382 64.7417278,46.0404092 63.7603355,46.0404092 C62.6191999,46.0404092 61.5792877,46.2201706 60.737552,46.5921728 C59.893602,46.9643236 59.1845638,47.4718154 58.628626,48.1039518 C58.0726881,48.7338597 57.6540345,49.4844009 57.3884813,50.3364107 C57.122928,51.1842608 56.9856438,52.1081752 56.9856438,53.0826011 C56.9856438,54.0742604 57.1251423,54.9981748 57.4020832,55.8289401 C57.6812383,56.6662422 58.1269375,57.404007 58.7300075,58.0148988 C59.3310214,58.6302475 60.1052221,59.112335 61.0325233,59.4482363 C61.9531816,59.7823549 63.0717001,59.9557282 64.3569208,59.9535209 C67.00154,59.9450316 68.3947851,59.3911881 68.9687533,59.0930218 C69.0701349,59.0402818 69.1667716,58.9472813 69.0453035,58.6809075 L68.4488763,57.1056921 C68.35651,56.8711108 68.1023444,56.9577232 68.1023444,56.9577232 C67.4473974,57.1860648 66.5177238,57.5962477 64.3412628,57.5920879 C62.9233446,57.5900081 61.8699887,57.1967613 61.210455,56.5814126 C60.532891,55.9515047 60.2021752,55.0253619 60.1434972,53.7188972 L69.3018415,53.7273653 C69.3018415,53.7273653 69.5425634,53.7232056 69.5673948,53.5031835 C69.5760936,53.4104801 69.8821362,51.7360244 69.29251,49.7972749 M40.3903855,57.2292967 C40.0324659,56.9606944 39.9829614,56.8930982 39.8614933,56.7197249 C39.6813473,56.455431 39.5891391,56.0791205 39.5891391,55.6013413 C39.5891391,54.8444119 39.8546924,54.3011163 40.4062017,53.9353538 C40.3995589,53.9375822 41.1940043,53.2905896 43.0620503,53.3137654 C44.3741585,53.3307016 45.5467682,53.512543 45.5467682,53.512543 L45.5467682,57.4237659 L45.5489825,57.4237659 C45.5489825,57.4237659 44.385388,57.6583471 43.0754941,57.7323316 C41.2118766,57.8381086 40.3835846,57.2272168 40.3903855,57.2292967 M44.0342694,51.184855 C43.6629061,51.1594507 43.181146,51.1445944 42.6049635,51.1445944 C41.8195332,51.1445944 41.0609905,51.237595 40.349738,51.4173564 C39.634057,51.5969693 38.9903395,51.878348 38.4366159,52.2502016 C37.8837327,52.620876 37.4293142,53.1063341 37.1086916,53.6688314 C36.7846186,54.2354514 36.6202888,54.90354 36.6202888,55.6520014 C36.6202888,56.4130905 36.7597872,57.074791 37.0389424,57.6161552 C37.3180975,58.1594507 37.720935,58.6118256 38.234011,58.9608005 C38.7426585,59.3096269 39.370718,59.5653041 40.0998428,59.7196613 C40.8178962,59.8740184 41.6325863,59.9521627 42.5239848,59.9521627 C43.4625154,59.9521627 44.3988317,59.8804066 45.3058882,59.734369 C46.2039294,59.5905599 47.3067899,59.3812343 47.6128325,59.3158665 C47.8274401,59.2672921 48.0412964,59.2158344 48.2543357,59.1615094 C48.481772,59.1087695 48.4637416,58.8802793 48.4637416,58.8802793 L48.4591549,51.0135617 C48.4591549,49.2882975 47.9685378,48.0091685 47.0029616,47.2164353 C46.0418139,46.4257821 44.6261099,46.0259986 42.7963389,46.0259986 C42.1097597,46.0259986 41.004685,46.1149879 40.3429371,46.2396324 C40.3429371,46.2396324 38.3420353,46.6033151 37.5181719,47.2079672 C37.5181719,47.2079672 37.338184,47.3137442 37.4371931,47.5505539 L38.0854973,49.1869774 C38.166476,49.3983828 38.3848971,49.3264782 38.3848971,49.3264782 C38.3848971,49.3264782 38.4546464,49.3010739 38.5357832,49.2566535 C40.2981773,48.3560635 42.5263572,48.3835477 42.5263572,48.3835477 C43.5167648,48.3835477 44.2775218,48.5695488 44.7905979,48.9394711 C45.2902302,49.2988455 45.544554,49.842141 45.544554,50.9880088 L45.544554,51.3516915 C44.7567513,51.2460631 44.0342694,51.184855 44.0342694,51.184855 M117.900298,46.752324 C117.969889,46.5577062 117.823748,46.4647056 117.762855,46.4436097 C117.607699,46.3865614 116.828911,46.2322043 116.227898,46.196252 C115.077905,46.1307356 114.438774,46.3125769 113.866862,46.5535464 C113.299695,46.7945159 112.669579,47.1834543 112.318302,47.6254298 L112.318302,46.5789507 C112.318302,46.4330617 112.208064,46.3167367 112.054963,46.3167367 L109.707372,46.3167367 C109.554429,46.3167367 109.444191,46.4329131 109.444191,46.5789507 L109.444191,59.4097585 C109.444191,59.5535676 109.570245,59.6719725 109.723188,59.6719725 L112.129299,59.6719725 C112.282727,59.6711542 112.40652,59.5538765 112.406082,59.4097585 L112.406082,52.9997029 C112.406082,52.1392249 112.507464,51.2809754 112.710068,50.7418396 C112.908087,50.2089435 113.178227,49.7819729 113.511315,49.4753385 C113.846617,49.1709326 114.226996,48.9574473 114.643435,48.8369625 C115.068732,48.7142493 115.539104,48.6741373 115.87235,48.6741373 C116.351738,48.6741373 116.878416,48.7903137 116.878416,48.7903137 C117.053817,48.8093298 117.152984,48.7078611 117.211346,48.5578123 C117.369033,48.1645656 117.814732,46.9869052 117.900298,46.752324" id="Shape" fill="#FFFFFF"></path>
            <path d="M94.8061694,40.3226189 C94.5006309,40.2291514 94.2233341,40.1659089 93.8613122,40.0982312 C93.4945008,40.0328532 93.0574982,40 92.5617,40 C90.8316914,40 89.4684941,40.486228 88.512076,41.4445572 C87.560117,42.3984512 86.9136966,43.8500719 86.5893303,45.7599953 L86.4717393,46.4027691 L84.3002688,46.4027691 C84.3002688,46.4027691 84.0370102,46.3934059 83.9805269,46.6787363 L83.6257719,48.6586372 C83.5998424,48.8457364 83.6822552,48.9648294 83.9359348,48.9648294 L86.04894,48.9648294 L83.9053809,60.8680532 C83.7384082,61.8265466 83.5456712,62.6143674 83.3317943,63.212625 C83.1225417,63.801848 82.9182438,64.2435599 82.664399,64.5661788 C82.4199682,64.874835 82.1895757,65.1038221 81.7898983,65.237042 C81.4609076,65.3469361 81.0802231,65.3983515 80.6641953,65.3983515 C80.4338027,65.3983515 80.1261172,65.3607345 79.8980368,65.3140829 C79.6724338,65.2695667 79.5525305,65.2206154 79.3809335,65.1480097 C79.3809335,65.1480097 79.1341905,65.0547065 79.0354272,65.3001203 C78.9578039,65.5034819 78.3937964,67.0438063 78.3255869,67.2333695 C78.2598549,67.4226042 78.3538286,67.569951 78.4735667,67.6143029 C78.755653,67.7125341 78.9647405,67.7779121 79.3479023,67.8690798 C79.879209,67.9931008 80.3279377,68 80.74859,68 C81.62755,68 82.431364,67.8761433 83.0966122,67.637793 C83.7641726,67.3969787 84.3468428,66.9784283 84.8639461,66.4128597 C85.4210171,65.8003109 85.7711477,65.1598369 86.1050931,64.2833123 C86.4363959,63.4182864 86.7209596,62.3429996 86.9463975,61.0901411 L89.1016827,48.9648294 L92.2510416,48.9648294 C92.2510416,48.9648294 92.5164473,48.9741926 92.5707836,48.6867267 L92.9278508,46.7091256 C92.9514681,46.5198909 92.8715326,46.4029333 92.6152105,46.4029333 L89.5575132,46.4029333 C89.5740288,46.3352556 89.7125946,45.2644041 90.0628904,44.2571236 C90.2133475,43.8293743 90.4952687,43.4809657 90.7327629,43.2424511 C90.967945,43.0087002 91.2381402,42.8427914 91.53443,42.7468599 C91.8374911,42.6486287 92.1831625,42.6019771 92.5615348,42.6019771 C92.8482456,42.6019771 93.132479,42.634666 93.3463559,42.6790179 C93.6424806,42.7422604 93.7575943,42.7749494 93.8353827,42.7984395 C94.148023,42.891907 94.1901377,42.8007392 94.2514106,42.6512569 L94.9823908,40.6549295 C95.0575368,40.4394122 94.8719015,40.3482444 94.8061694,40.3226189 M54.0836268,60.8938429 C54.0836268,61.0528527 53.9685131,61.1814731 53.8086422,61.1814731 L51.2726725,61.1814731 C51.1128015,61.1814731 51,61.0528527 51,60.8938429 L51,40.5938224 C51,40.434977 51.1128015,40.3063565 51.2726725,40.3063565 L53.8086422,40.3063565 C53.9685131,40.3063565 54.0836268,40.434977 54.0836268,40.5938224 L54.0836268,60.8938429 Z" id="Shape" fill="#FFFFFF"></path>
        </g>
    </g>
</svg>