<?xml version="1.0" encoding="UTF-8"?>
<svg width="289px" height="59px" viewBox="0 0 289 59" version="1.1" xmlns="http://www.w3.org/2000/svg" xmlns:xlink="http://www.w3.org/1999/xlink">
    <title>logo-microsoft</title>
    <g id="logo-microsoft" stroke="none" stroke-width="1" fill="none" fill-rule="evenodd" opacity="0.5">
        <g id="microsoft" transform="translate(-0.000000, 0.000000)" fill="#98A3D8" fill-rule="nonzero">
            <path d="M278,24.4649821 L278,17.6575042 L269.597141,17.6575042 L269.597141,7.07445982 L269.31428,7.16208083 L261.422061,9.59150417 L261.266487,9.63905916 L261.266487,17.6578787 L248.809771,17.6578787 L248.809771,13.1907054 C248.809771,11.1106427 249.272027,9.51886112 250.18314,8.45729898 C251.087926,7.40846809 252.382019,6.8752531 254.032667,6.8752531 C255.219198,6.8752531 256.447786,7.15646409 257.68419,7.71102266 L257.994222,7.85031759 L257.994222,0.681122237 L257.848325,0.62720162 C256.694918,0.210065737 255.126151,0 253.181476,0 C250.730627,0 248.503834,0.536585028 246.561764,1.60001942 C244.618577,2.6649516 243.090006,4.18521344 242.019225,6.11811777 C240.952166,8.04877541 240.410634,10.2786176 240.410634,12.7462347 L240.410634,17.6575042 L234.55986,17.6575042 L234.55986,24.4649821 L240.410634,24.4649821 L240.410634,53.1436358 L248.809771,53.1436358 L248.809771,24.4649821 L261.266487,24.4649821 L261.266487,42.6897762 C261.266487,50.1956009 264.785512,53.9992511 271.725677,53.9992511 C272.866057,53.9992511 274.066359,53.864824 275.29197,53.6015866 C276.539539,53.3312346 277.389242,53.061257 277.889461,52.7729315 L278,52.7070285 L278,45.8366433 L277.658333,46.0639337 C277.202404,46.3694838 276.634819,46.6192411 275.969349,46.8049677 C275.300902,46.9940643 274.742622,47.0887998 274.310141,47.0887998 C272.68443,47.0887998 271.481523,46.6480737 270.735288,45.7782293 C269.980494,44.9005215 269.597514,43.3656561 269.597514,41.2185671 L269.597514,24.4649821 L278,24.4649821 Z M215.80314,47.0899232 C212.754559,47.0899232 210.350977,46.0729204 208.657156,44.0696197 C206.952913,42.0562089 206.08944,39.185685 206.08944,35.5385544 C206.08944,31.7757191 206.952913,28.8306798 208.6579,26.7816964 C210.352838,24.7461931 212.733344,23.7130891 215.734658,23.7130891 C218.647018,23.7130891 220.965369,24.6997615 222.626066,26.6472693 C224.294951,28.6048872 225.142048,31.5263362 225.142048,35.332982 C225.142048,39.1864339 224.345569,42.1464511 222.774941,44.1265359 C221.215106,46.0916429 218.869586,47.0899232 215.80314,47.0899232 M216.176443,16.8026378 C210.360282,16.8026378 205.740701,18.5172385 202.446849,21.898885 C199.15523,25.2809059 197.486345,29.9611405 197.486345,35.8107786 C197.486345,41.3668488 199.115406,45.8358944 202.328866,49.0917261 C205.542326,52.3486811 209.915519,53.9985022 215.325997,53.9985022 C220.96388,53.9985022 225.491531,52.2599368 228.783895,48.8314842 C232.075886,45.4067761 233.743654,40.7707264 233.743654,35.0577622 C233.743654,29.4148198 232.178609,24.9124483 229.090577,21.6783347 C226.001055,18.4427232 221.655403,16.8026378 216.176443,16.8026378 M183.944333,16.8026378 C179.987988,16.8026378 176.715351,17.8207639 174.215373,19.8281835 C171.700135,21.8475855 170.424279,24.4960614 170.424279,27.700968 C170.424279,29.3668904 170.699698,30.8467118 171.241601,32.1018639 C171.786855,33.361135 172.630602,34.4698777 173.751628,35.4003828 C174.864094,36.3233989 176.581364,37.2902255 178.856913,38.2739023 C180.769952,39.0658614 182.196544,39.7357501 183.102819,40.2637229 C183.988623,40.781211 184.617246,41.3013203 184.972312,41.8079494 C185.317329,42.3037195 185.492257,42.9822206 185.492257,43.819488 C185.492257,46.203603 183.717671,47.3636452 180.066147,47.3636452 C178.71176,47.3636452 177.166813,47.0790642 175.47448,46.51814 C173.79417,45.9656965 172.208249,45.1566767 170.772274,44.1194214 L170.423535,43.8677919 L170.423535,52.0034394 L170.551567,52.0633512 C171.739959,52.6152886 173.238383,53.0807284 175.004409,53.4469392 C176.767085,53.8135245 178.368604,54 179.759838,54 C184.053011,54 187.510253,52.9770061 190.032935,50.9576041 C192.57162,48.9243475 193.858269,46.2133387 193.858269,42.8975952 C193.858269,40.5056167 193.16563,38.4543866 191.800449,36.8000721 C190.444573,35.1592378 188.091237,33.6528306 184.808922,32.3212909 C182.193939,31.2653455 180.518726,30.388761 179.827576,29.7158766 C179.161362,29.0658336 178.823044,28.146562 178.823044,26.9824009 C178.823044,25.9504202 179.240637,25.1236374 180.097783,24.4541231 C180.961629,23.7812387 182.164164,23.4389926 183.672264,23.4389926 C185.071686,23.4389926 186.503488,23.6614151 187.927474,24.0972735 C189.350344,24.5331318 190.600147,25.1168973 191.643386,25.8309711 L191.986542,26.0668738 L191.986542,18.3494855 L191.854788,18.2925693 C190.892314,17.8773056 189.623157,17.5219538 188.08156,17.2336283 C186.547034,16.947175 185.155056,16.8026378 183.944333,16.8026378 M148.528165,47.0899232 C145.480328,47.0899232 143.076002,46.0729204 141.382553,44.0696197 C139.677938,42.0562089 138.815954,39.1864339 138.815954,35.5385544 C138.815954,31.7757191 139.679055,28.8306798 141.384414,26.7816964 C143.077863,24.7461931 145.457997,23.7130891 148.460799,23.7130891 C151.372043,23.7130891 153.690394,24.6997615 155.351463,26.6472693 C157.020721,28.6048872 157.867445,31.5263362 157.867445,35.332982 C157.867445,39.1864339 157.070594,42.1464511 155.499966,44.1265359 C153.940131,46.0916429 151.595728,47.0899232 148.528165,47.0899232 M148.902585,16.8026378 C143.084935,16.8026378 138.464982,18.5172385 135.17299,21.898885 C131.881372,25.2809059 130.21137,29.9611405 130.21137,35.8107786 C130.21137,41.3690955 131.841548,45.8358944 135.055007,49.0917261 C138.268467,52.3486811 142.641288,53.9985022 148.051766,53.9985022 C153.688905,53.9985022 158.217673,52.2599368 161.510036,48.8314842 C164.801283,45.4067761 166.469796,40.7707264 166.469796,35.0577622 C166.469796,29.4148198 164.904379,24.9124483 161.815602,21.6783347 C158.725336,18.4427232 154.380428,16.8026378 148.902585,16.8026378 M117.461743,23.8029568 L117.461743,17.6575042 L109.164958,17.6575042 L109.164958,53.1428869 L117.461743,53.1428869 L117.461743,34.9907359 C117.461743,31.904155 118.15736,29.3683882 119.529984,27.453083 C120.885116,25.5606191 122.690966,24.6016559 124.8958,24.6016559 C125.643151,24.6016559 126.482059,24.7255984 127.390567,24.9708623 C128.28977,25.2146285 128.941097,25.4793637 129.325193,25.7579536 L129.673932,26.0122043 L129.673932,17.5968435 L129.539573,17.538804 C128.766913,17.2085402 127.673801,17.0419105 126.290755,17.0419105 C124.205766,17.0419105 122.339994,17.7159182 120.741824,19.0429645 C119.339053,20.2093723 118.325216,21.8086428 117.549951,23.8029568 L117.461743,23.8029568 Z M94.3068934,16.8026378 C90.5005402,16.8026378 87.1054533,17.6238038 84.2176569,19.2425457 C81.3239055,20.865032 79.085947,23.1813719 77.5633313,26.1267856 C76.047415,29.0650847 75.2777329,32.4972818 75.2777329,36.3248967 C75.2777329,39.6777106 76.0239672,42.7545558 77.498943,45.4663135 C78.9746632,48.1825646 81.0633748,50.3075611 83.707389,51.7813913 C86.3476813,53.2533492 89.3992398,53.9996256 92.7779505,53.9996256 C96.7208961,53.9996256 100.087325,53.2065431 102.786422,51.6424708 L102.895473,51.5795634 L102.895473,43.932197 L102.546734,44.18832 C101.324101,45.0843758 99.9578037,45.7995729 98.4876663,46.3148143 C97.0212508,46.8296813 95.6843562,47.0899232 94.5119682,47.0899232 C91.2564513,47.0899232 88.6429565,46.065057 86.745921,44.0445317 C84.8447915,42.0213852 83.880828,39.1804427 83.880828,35.6055807 C83.880828,32.0082517 84.8861042,29.0942917 86.8672539,26.9442071 C88.8424486,24.8004882 91.4607818,23.7130891 94.6489329,23.7130891 C97.3759447,23.7130891 100.033358,24.6420964 102.547479,26.4768951 L102.895473,26.7311458 L102.895473,18.6733836 L102.783073,18.6097273 C101.836974,18.0768868 100.546603,17.6369095 98.9447115,17.3032757 C97.3495194,16.9703908 95.7893129,16.8026378 94.3068934,16.8026378 M69.5635509,17.6578787 L61.2667655,17.6578787 L61.2667655,53.1428869 L69.5635509,53.1428869 L69.5635509,17.6578787 Z M65.5000167,2.54100907 C64.1344638,2.54100907 62.9434665,3.00869553 61.9649877,3.93545613 C60.9824148,4.86483788 60.4840569,6.03499015 60.4840569,7.41595706 C60.4840569,8.77520595 60.9764599,9.92401465 61.949728,10.8286828 C62.916669,11.7307298 64.1113882,12.1879317 65.5003889,12.1879317 C66.8890174,12.1879317 68.0882029,11.7307298 69.0666817,10.8301806 C70.0514876,9.92401465 70.5509621,8.7755804 70.5509621,7.41595706 C70.5509621,6.08329404 70.0648863,4.92512412 69.10725,3.97290101 C68.1503581,3.02255013 66.9362851,2.54100907 65.5000167,2.54100907 M44.7989938,15.0397332 L44.7989938,53.1428869 L53.2662407,53.1428869 L53.2662407,3.62728483 L41.5471988,3.62728483 L26.6515436,40.4060134 L12.1961852,3.62728483 L0,3.62728483 L0,53.1428869 L7.95697897,53.1428869 L7.95697897,15.0359887 L8.23016399,15.0359887 L23.4946562,53.1428869 L29.499516,53.1428869 L44.5258087,15.0397332 L44.7989938,15.0397332 L44.7989938,15.0397332 Z" id="Shape"></path>
        </g>
    </g>
</svg>