<?xml version="1.0" encoding="UTF-8"?>
<svg width="188px" height="73px" viewBox="0 0 188 73" version="1.1" xmlns="http://www.w3.org/2000/svg" xmlns:xlink="http://www.w3.org/1999/xlink">
    <title>logo-ibm</title>
    <g id="logo-ibm" stroke="none" stroke-width="1" fill="none" fill-rule="evenodd" opacity="0.5">
        <g id="ibm" transform="translate(3.000000, 0.000000)" fill="#98A3D8" fill-rule="nonzero">
            <path d="M0,0 L0,4.9944775 L35.620584,4.9944775 L35.620584,0 L0,0 Z M40.667358,0 L40.667358,4.9944775 L91.428447,4.9944775 C91.428447,4.9944775 86.243508,0 79.37625,0 L40.667358,0 Z M101.386209,0 L101.386209,4.9944775 L132.095805,4.9944775 L130.273125,0 L101.386209,0 Z M154.113084,0 L152.290221,4.9944775 L182.721108,4.9944775 L182.721108,0 L154.113084,0 Z M0,9.713015 L0,14.7074925 L35.620584,14.7074925 L35.620584,9.713015 L0,9.713015 Z M40.667358,9.7201325 L40.667358,14.707675 L97.318668,14.707675 C97.318668,14.707675 96.657123,10.8636775 95.502942,9.7201325 L40.667358,9.7201325 Z M101.386209,9.7201325 L101.386209,14.707675 L135.462822,14.707675 L133.775745,9.7201325 L101.386209,9.7201325 Z M150.467358,9.7201325 L148.780281,14.707675 L182.721108,14.707675 L182.721108,9.7201325 L150.467358,9.7201325 L150.467358,9.7201325 Z M10.236471,19.42603 L10.236471,24.427625 L25.662822,24.427625 L25.662822,19.42603 L10.236471,19.42603 L10.236471,19.42603 Z M50.904012,19.42603 L50.904012,24.427625 L66.330363,24.427625 L66.330363,19.42603 L50.904012,19.42603 L50.904012,19.42603 Z M81.334899,19.42603 L81.334899,24.427625 L96.76125,24.427625 C96.76125,24.427625 97.740666,21.7863025 97.740666,19.42603 L81.334899,19.42603 L81.334899,19.42603 Z M111.622863,19.42603 L111.622863,24.427625 L138.972762,24.427625 L137.149899,19.42603 L111.622863,19.42603 L111.622863,19.42603 Z M147.107661,19.42603 L145.277661,24.427625 L172.763346,24.427625 L172.763346,19.42603 L147.107661,19.42603 L147.107661,19.42603 Z M10.236471,29.146345 L10.236471,34.1408225 L25.662822,34.1408225 L25.662822,29.146345 L10.236471,29.146345 Z M50.904012,29.146345 L50.904012,34.1408225 L90.306108,34.1408225 C90.306108,34.1408225 93.602304,31.5781575 94.652358,29.146345 L50.904012,29.146345 Z M111.622863,29.146345 L111.622863,34.1408225 L127.049214,34.1408225 L127.049214,31.3606175 L128.02863,34.1408225 L156.286392,34.1408225 L157.337178,31.3606175 L157.337178,34.1408225 L172.763529,34.1408225 L172.763529,29.146345 L143.80506,29.146345 L142.268226,33.376695 L140.724072,29.146345 L111.622863,29.146345 Z M10.236471,38.85936 L10.236471,43.8538375 L25.662822,43.8538375 L25.662822,38.85936 L10.236471,38.85936 Z M50.904012,38.85936 L50.904012,43.8538375 L94.652358,43.8538375 C93.602121,41.430055 90.306108,38.85936 90.306108,38.85936 L50.904012,38.85936 Z M111.622863,38.85936 L111.622863,43.8538375 L127.049214,43.8538375 L127.049214,38.85936 L111.622863,38.85936 Z M129.85131,38.85936 L131.716995,43.8538375 L152.904918,43.8538375 L154.677822,38.85936 L129.85131,38.85936 Z M157.336995,38.85936 L157.336995,43.8538375 L172.763346,43.8538375 L172.763346,38.85936 L157.336995,38.85936 Z M10.236471,48.572375 L10.236471,53.56667 L25.662822,53.56667 L25.662822,48.572375 L10.236471,48.572375 Z M50.904012,48.572375 L50.904012,53.56667 L66.330363,53.56667 L66.330363,48.572375 L50.904012,48.572375 Z M81.334899,48.572375 L81.334899,53.56667 L97.740483,53.56667 C97.740483,51.2096825 96.761067,48.572375 96.761067,48.572375 L81.334899,48.572375 L81.334899,48.572375 Z M111.622863,48.572375 L111.622863,53.56667 L127.049214,53.56667 L127.049214,48.572375 L111.622863,48.572375 Z M133.354113,48.572375 L135.162702,53.56667 L149.366613,53.56667 L151.189476,48.572375 L133.354113,48.572375 Z M157.336995,48.572375 L157.336995,53.56667 L172.763346,53.56667 L172.763346,48.572375 L157.336995,48.572375 Z M0.278709,58.28539 L0.278709,63.286985 L35.899293,63.286985 L35.899293,58.28539 L0.278709,58.28539 Z M40.667358,58.28539 L40.667358,63.286985 L95.502942,63.286985 C96.657123,62.1417975 97.318668,58.28539 97.318668,58.28539 L40.667358,58.28539 Z M101.665101,58.28539 L101.665101,63.286985 L127.049214,63.286985 L127.049214,58.28539 L101.665101,58.28539 Z M136.86387,58.28539 L138.722418,63.286985 L145.949454,63.286985 L147.693627,58.28539 L136.86387,58.28539 Z M157.336995,58.28539 L157.336995,63.286985 L183,63.286985 L183,58.28539 L157.336995,58.28539 Z M0.278709,68.0055225 L0.278709,73 L35.899293,73 L35.899293,68.0055225 L0.278709,68.0055225 Z M40.667358,68.0055225 L40.667358,72.9928825 L79.37625,72.9928825 C86.243508,72.9928825 91.428447,68.0055225 91.428447,68.0055225 L40.667358,68.0055225 Z M101.665101,68.0055225 L101.665101,73 L127.049214,73 L127.049214,68.0055225 L101.665101,68.0055225 Z M140.388084,68.0055225 L142.175262,72.9859475 L142.482702,72.9928825 L144.298428,68.0055225 L140.388084,68.0055225 L140.388084,68.0055225 Z M157.336995,68.0055225 L157.336995,73 L183,73 L183,68.0055225 L157.336995,68.0055225 Z" id="Shape"></path>
        </g>
    </g>
</svg>