<?xml version="1.0" encoding="UTF-8"?>
<svg width="289px" height="73px" viewBox="0 0 289 73" version="1.1" xmlns="http://www.w3.org/2000/svg" xmlns:xlink="http://www.w3.org/1999/xlink">
    <title>logo-vodafone</title>
    <g id="logo-vodafone" stroke="none" stroke-width="1" fill="none" fill-rule="evenodd" opacity="0.5">
        <g id="vodafone-2017-logo" fill-rule="nonzero">
            <path d="M72,35 C72,54.3299662 55.882251,70 36,70 C16.117749,70 0,54.3299662 0,35 C0,15.6700338 16.117749,0 36,0 C55.882251,0 72,15.6700338 72,35" id="Path" fill="#98A3D8"></path>
            <path d="M36.400725,53 C26.9174321,53.0317966 17.0501327,45.2237952 17,32.6567847 C16.983349,24.3486841 21.6248198,16.3632281 27.5351818,11.6203512 C33.3286724,6.9904 41.242547,4.03820113 48.4218004,4.00593666 C49.2595805,3.9754662 50.0975112,4.06240738 50.9094952,4.26405241 C44.4205419,5.64594489 39.7636974,11.1536348 39.6564329,17.5731457 C39.6564329,17.798997 39.6564329,18.0248482 39.6898248,18.1216416 C50.2082658,20.5898735 54.9666081,26.7201225 55,35.2056777 C54.986805,39.9517891 53.017119,44.49724 49.5266407,47.8365671 C46.0361623,51.1758942 41.3125674,53.0338793 36.400725,53" id="Path" fill="#FFFFFF"></path>
            <path d="M90.686845,50.3911031 L80,23.8741731 L86.9947179,23.8741731 L93.6845812,41.4818364 L100.154272,23.8741731 L106.827199,23.8741731 L96.428272,50.3911031 L90.686845,50.3911031 Z M125.440262,37.0008442 C125.448005,35.9342358 125.322766,34.8710669 125.067662,33.837791 C124.85204,32.9233526 124.472872,32.0590438 123.949862,31.2897758 C123.478536,30.5924424 122.865769,30.0106409 122.154607,29.5852415 C121.395882,29.1409296 120.536006,28.9163688 119.664962,28.9350584 C118.793823,28.915501 117.933729,29.1401186 117.175317,29.5852415 C116.456698,30.0066649 115.837629,30.5889567 115.363126,31.2897758 C114.844176,32.0656721 114.470712,32.9360384 114.262262,33.8553635 C114.008604,34.8829467 113.883376,35.9401125 113.889662,37.0008442 C113.881156,38.0674977 114.006407,39.1307685 114.262262,40.1638975 C114.475528,41.075547 114.836311,41.9430508 115.329253,42.7294852 C116.281555,44.2362946 117.911619,45.1316838 119.648025,45.1017751 C121.385543,45.1565884 123.021562,44.2543898 123.949862,42.7294852 C124.465553,41.9558846 124.844084,41.0930268 125.067662,40.18147 C125.32498,39.1426505 125.450242,38.0733734 125.440262,37.0008442 M131.893016,37.0184167 C131.893271,38.7476681 131.636198,40.4665935 131.13088,42.114447 C130.638194,43.7401526 129.86333,45.2587594 128.844471,46.5954392 C126.628883,49.4868926 123.223004,51.1168784 119.664962,50.9885687 C116.10377,51.1084509 112.696226,49.4806715 110.468517,46.5954392 C109.451876,45.2572586 108.677238,43.739092 108.182108,42.114447 C107.175625,38.8153323 107.175625,35.2742188 108.182108,31.975104 C108.677644,30.3667167 109.45253,28.8659317 110.468517,27.5468294 C111.502328,26.2268936 112.803287,25.1590317 114.279198,24.4189212 C115.96058,23.591825 117.804609,23.1826931 119.664962,23.22399 C123.198058,23.122661 126.578742,24.7176446 128.827534,27.5468294 C129.843716,28.8471958 130.622789,30.3232873 131.13088,31.975104 C131.63897,33.6269207 131.893016,35.3138825 131.893016,37.0184167 M151.640815,29.7258217 C150.518812,29.2353607 149.318236,28.967154 148.101115,28.9350584 C146.167795,28.8379591 144.31879,29.7641104 143.18957,31.3952109 C142.654592,32.166559 142.253397,33.0288211 142.004024,33.9432261 C141.741301,34.8854337 141.610121,35.8618547 141.614488,36.8426916 C141.608641,37.9071125 141.722316,38.9686172 141.953215,40.0057448 C142.156823,40.9426016 142.518014,41.8348818 143.020206,42.6416226 C143.477497,43.3840171 144.091362,44.0089225 144.815461,44.4691645 C145.526788,44.9260499 146.390542,45.1720652 147.355915,45.1720652 C148.228627,45.151936 149.083346,44.9106234 149.84556,44.4691645 C150.575986,44.1119897 151.197217,43.5525555 151.640815,42.8524928 L151.640815,29.7258217 Z M152.165842,50.3911031 L151.911797,48.352691 C151.237081,49.1132843 150.433363,49.7387148 149.540706,50.1978054 C146.91897,51.36151 143.930598,51.2323175 141.411252,49.846355 C140.07761,49.0850776 138.921304,48.0293072 138.023979,46.7535918 C137.076265,45.4120312 136.365231,43.9068006 135.92387,42.3077447 C135.448127,40.5941379 135.208641,38.8192686 135.212496,37.0359893 C135.212496,35.29631 135.449652,33.6093482 135.940807,31.9575315 C136.418562,30.3538026 137.182682,28.857576 138.193343,27.5468294 C140.40665,24.6996688 143.78174,23.0984451 147.305106,23.22399 C148.660015,23.22399 150.099606,23.4875777 151.640815,23.9971808 L151.640815,13.7172576 L158.212124,13.7172576 L158.212124,50.3911031 L152.165842,50.3911031 Z M176.706632,37.9497602 C175.257776,38.0504346 173.815765,38.2381899 172.387859,38.5120808 C170.965205,38.8108136 169.982896,39.3028441 169.423996,40.0233174 C168.900783,40.6814436 168.613507,41.5073346 168.611051,42.3604623 C168.611051,43.2390882 168.915905,43.9419889 169.542551,44.4691645 C170.301153,45.0455234 171.228872,45.3311882 172.167687,45.2775003 C173.014505,45.2775003 173.861323,45.1017751 174.657332,44.7327522 C175.410251,44.391793 176.102906,43.9225772 176.706632,43.3445233 L176.706632,37.9497602 Z M177.231659,50.3559581 L176.977614,48.387836 C176.226412,49.2317257 175.299652,49.8867952 174.267796,50.3032405 C172.097577,51.1944426 169.688255,51.2319399 167.493251,50.4086756 C164.257782,49.2894787 162.106453,46.1088638 162.192169,42.5713325 C162.147938,40.2186917 163.169958,37.9807755 164.952796,36.5263862 C165.841562,35.8089919 166.829275,35.2343858 167.882787,34.821852 C169.899925,34.0796313 172.000023,33.6072235 174.132305,33.4160505 L176.672759,33.1700353 L176.672759,32.7834399 C176.672759,31.3249209 176.300159,30.2881423 175.571896,29.6555316 C174.704101,28.9863502 173.636474,28.6565208 172.557223,28.7241882 C170.63771,28.734145 168.768211,29.3602572 167.205332,30.516585 C166.863772,30.7417011 166.53573,30.9881718 166.223023,31.2546308 L164.038233,26.4749058 C165.086195,25.6499208 166.237041,24.9760375 167.459378,24.4716388 C170.642902,23.098613 174.17625,22.863688 177.502641,23.8038831 C179.820467,24.5556315 181.67182,26.3791813 182.515804,28.7417607 C183.024845,30.2116102 183.266053,31.7668486 183.227132,33.3281879 L183.227132,50.3735306 L177.231659,50.3559581 Z M203.533831,19.7622039 C202.363242,19.2184319 201.089946,18.9542074 199.807831,18.9890131 C198.910204,18.9890131 198.131131,19.2701734 197.521422,19.8500665 C196.894777,20.412387 196.589922,21.3437305 196.589922,22.6265243 L196.589922,23.8741731 L202.111176,23.8741731 L202.111176,29.3743713 L196.640731,29.3743713 L196.640731,50.3911031 L190.069422,50.3911031 L190.069422,29.3743713 L186.68215,29.3743713 L186.68215,23.8741731 L190.069422,23.8741731 L190.069422,22.4683717 C190.069422,20.7286924 190.289595,19.2701734 190.713004,18.0752421 C191.413852,15.9045411 193.067247,14.2086102 195.167268,13.5063874 C198.184849,12.6702098 201.382566,12.8737197 204.279031,14.0862805 L203.533831,19.7622039 Z M221.452503,37.0008442 C221.457097,35.9344248 221.331908,34.8716702 221.079903,33.837791 C220.864281,32.9233526 220.485114,32.0590438 219.962103,31.2897758 C219.490777,30.5924424 218.878011,30.0106409 218.166848,29.5852415 C217.408123,29.1409296 216.548247,28.9163688 215.677203,28.9350584 C214.806064,28.915501 213.94597,29.1401186 213.187558,29.5852415 C212.470912,30.0094932 211.85239,30.5912703 211.375367,31.2897758 C210.85557,32.0673697 210.476775,32.9367829 210.257567,33.8553635 C209.742018,35.9301429 209.742018,38.1066906 210.257567,40.18147 C210.48089,41.0870478 210.84715,41.9480238 211.341494,42.7294852 C211.804594,43.4543965 212.425328,44.0563115 213.153685,44.486737 C213.928145,44.9200307 214.797508,45.137968 215.677203,45.1193476 C217.412131,45.1641295 219.041048,44.2556166 219.962103,42.7294852 C220.477794,41.9558846 220.856325,41.0930268 221.079903,40.18147 C221.334051,39.1420334 221.459263,38.0731846 221.452503,37.0008442 M227.905288,37.0184167 C227.908527,38.7479076 227.651381,40.467313 227.143121,42.114447 C226.653283,43.741386 225.878156,45.2605105 224.856712,46.5954392 C222.641124,49.4868926 219.235245,51.1168784 215.677203,50.9885687 C212.116011,51.1084509 208.708467,49.4806715 206.480758,46.5954392 C205.464117,45.2572586 204.689479,43.739092 204.194349,42.114447 C203.174434,38.8174998 203.174434,35.2720513 204.194349,31.975104 C204.684744,30.3679873 205.453848,28.8672849 206.463822,27.5468294 C207.502503,26.2248596 208.809418,25.156856 210.29144,24.4189212 C211.972821,23.591825 213.81685,23.1826931 215.677203,23.22399 C219.210299,23.122661 222.590983,24.7176446 224.839775,27.5468294 C225.855957,28.8471958 226.63503,30.3232873 227.143121,31.975104 C227.651212,33.6269207 227.905288,35.3138825 227.905288,37.0184167 M248.313574,50.3911031 L248.313574,35.2787374 C248.414829,33.6182667 247.986289,31.969404 247.094156,30.5868751 C246.291076,29.4975879 245.027665,28.8814802 243.706884,28.9350584 C242.701928,28.9230742 241.714646,29.2096529 240.861575,29.7609667 C240.042883,30.2743275 239.286616,30.8879069 238.609038,31.5885086 L238.609038,50.3911031 L232.03773,50.3911031 L232.03773,23.8741731 L238.033202,23.8741731 L238.338057,25.9828753 C240.40558,24.1944898 243.013616,23.2178421 245.705374,23.2239611 C247.060283,23.2239611 248.296638,23.4348602 249.431374,23.8566006 C250.538615,24.2716589 251.53237,24.9590463 252.327492,25.8598677 C253.157374,26.7736386 253.784019,27.9685699 254.224365,29.4270889 C254.66471,30.9031804 254.884883,32.6604322 254.884883,34.6988443 L254.884883,50.3911031 L248.313574,50.3911031 Z M275.327073,33.9432261 C275.278636,33.1185517 275.089396,32.309361 274.768173,31.5533636 C274.506244,30.9304725 274.126085,30.3686972 273.650373,29.9015469 C272.82989,29.1134824 271.75377,28.6743932 270.635701,28.6714706 C269.43489,28.6939107 268.281446,29.1613986 267.383919,29.9894095 C266.291439,31.0004463 265.638102,32.4258898 265.571728,33.9432261 L275.327073,33.9432261 Z M265.419301,38.8459586 C265.554792,41.0776685 266.232246,42.6943401 267.451664,43.6784011 C268.793954,44.7140621 270.437746,45.2412278 272.109164,45.1720652 C273.672244,45.1700869 275.221872,44.87234 276.681982,44.2934393 C277.217882,44.0731925 277.7385,43.8148489 278.240127,43.5202485 C278.581745,43.3184453 278.899964,43.0767126 279.188564,42.7997752 L280.949946,48.352691 C279.953349,49.0522498 278.863546,49.5968983 277.7151,49.9693627 C275.618392,50.6365116 273.438481,50.979925 271.24541,50.9886595 C269.630967,50.9944425 268.027338,50.7151512 266.503228,50.1626604 C265.022388,49.6266183 263.674614,48.7563704 262.557055,47.6146452 C261.373892,46.3848886 260.450964,44.9125875 259.847237,43.2918057 C259.130507,41.3285452 258.785478,39.2402748 258.831056,37.1414244 C258.831056,34.892142 259.152846,32.92402 259.762556,31.2019132 C261.318457,26.3562342 265.730972,23.1236868 270.652637,23.22399 C272.196131,23.2080156 273.729189,23.4880163 275.174646,24.0498983 C276.546491,24.5946464 277.732037,25.4556998 278.731282,26.5979135 C279.747464,27.7576997 280.543473,29.2513637 281.119309,31.0964781 C281.712082,32.92402 282,35.1030123 282,37.6334549 L282,38.8459586 L265.419301,38.8459586 Z" id="Shape" fill="#98A3D8"></path>
        </g>
    </g>
</svg>