<?xml version="1.0" encoding="UTF-8"?>
<svg width="204px" height="68px" viewBox="0 0 204 68" version="1.1" xmlns="http://www.w3.org/2000/svg" xmlns:xlink="http://www.w3.org/1999/xlink">
    <title>logo-amazon</title>
    <g id="logo-amazon" stroke="none" stroke-width="1" fill="none" fill-rule="evenodd" opacity="0.5">
        <g id="amazon-2" transform="translate(0.000000, -1.000000)" fill="#98A3D8" fill-rule="nonzero">
            <path d="M125.144258,49.1385608 C113.414737,58.1818527 96.3536152,63 81.6383981,63 C61.0228764,63 42.539995,55.0685883 28.4645699,41.8742771 C27.3982498,40.8365223 28.3223939,39.4281408 29.673066,40.2435196 C44.8148112,49.4350622 63.5109566,54.9203376 82.8468942,54.9203376 C95.8559992,54.9203376 110.215776,52.1035745 123.438145,46.2476724 C125.42861,45.4322936 127.063634,47.6560539 125.144258,49.1385608 Z" id="Path"></path>
            <path d="M133.318727,43.5715221 C131.762942,41.535962 122.946826,42.5914376 119.020321,43.1191754 C117.834961,43.2699576 117.612706,42.214482 118.723981,41.4605709 C125.762057,36.4093662 137.245233,37.9171885 138.578763,39.575793 C139.912293,41.2343975 138.208338,52.9954115 131.614772,58.574354 C130.577582,59.4036562 129.614477,58.9513095 130.058987,57.8204428 C131.540687,54.0508871 134.874512,45.6824733 133.318727,43.5715221 Z" id="Path"></path>
            <path d="M117.890526,7.04536489 L117.890526,2.17357002 C117.890526,1.42406312 118.391579,0.974358974 119.035789,0.974358974 L139.793684,0.974358974 C140.437895,0.974358974 141.010526,1.49901381 141.010526,2.17357002 L141.010526,6.29585799 C141.010526,6.9704142 140.437895,7.86982249 139.435789,9.36883629 L128.698947,25.408284 C132.707368,25.3333333 136.930526,25.9329389 140.509474,28.0315582 C141.296842,28.4812623 141.511579,29.2307692 141.583158,29.9053254 L141.583158,35.0769231 C141.583158,35.82643 140.867368,36.6508876 140.08,36.2011834 C133.709474,32.678501 125.191579,32.3037475 118.176842,36.2761341 C117.461053,36.6508876 116.673684,35.9013807 116.673684,35.1518738 L116.673684,30.2051282 C116.673684,29.4556213 116.673684,28.1065089 117.461053,26.9072978 L129.915789,8.24457594 L119.107368,8.24457594 C118.463158,8.24457594 117.890526,7.7199211 117.890526,7.04536489 L117.890526,7.04536489 Z M42.2315789,37.2504931 L35.9326316,37.2504931 C35.36,37.1755424 34.8589474,36.7258383 34.7873684,36.1262327 L34.7873684,2.24852071 C34.7873684,1.5739645 35.36,1.04930966 36.0042105,1.04930966 L41.8736842,1.04930966 C42.5178947,1.04930966 42.9473684,1.5739645 43.0189474,2.17357002 L43.0189474,6.59566075 L43.1621053,6.59566075 C44.6652632,2.3234714 47.6,0.299802761 51.4652632,0.299802761 C55.4021053,0.299802761 57.9073684,2.3234714 59.6252632,6.59566075 C61.1284211,2.3234714 64.6357895,0.299802761 68.3578947,0.299802761 C71.0063158,0.299802761 73.8694737,1.42406312 75.6589474,4.04733728 C77.6631579,6.89546351 77.2336842,11.0177515 77.2336842,14.6903353 L77.2336842,36.1262327 C77.2336842,36.800789 76.6610526,37.3254438 76.0168421,37.3254438 L69.7894737,37.3254438 C69.1452632,37.2504931 68.6442105,36.7258383 68.6442105,36.1262327 L68.6442105,18.1380671 C68.6442105,16.7140039 68.7873684,13.1163708 68.5010526,11.7672584 C68,9.51873767 66.64,8.84418146 64.7789474,8.84418146 C63.2757895,8.84418146 61.6294737,9.89349112 60.9852632,11.617357 C60.3410526,13.3412229 60.4126316,16.1893491 60.4126316,18.1380671 L60.4126316,36.1262327 C60.4126316,36.800789 59.84,37.3254438 59.1957895,37.3254438 L52.8968421,37.3254438 C52.2526316,37.2504931 51.7515789,36.7258383 51.7515789,36.1262327 L51.7515789,18.1380671 C51.7515789,14.3905325 52.3242105,8.76923077 47.8863158,8.76923077 C43.3768421,8.76923077 43.52,14.1656805 43.52,18.1380671 L43.52,36.1262327 C43.4484211,36.7258383 42.9473684,37.2504931 42.2315789,37.2504931 L42.2315789,37.2504931 Z M158.905263,0.299802761 C168.282105,0.299802761 173.364211,8.69428008 173.364211,19.4122288 C173.364211,29.7554241 167.781053,38 158.905263,38 C149.743158,38 144.732632,29.6055227 144.732632,19.112426 C144.661053,8.5443787 149.743158,0.299802761 158.905263,0.299802761 Z M158.905263,7.27021696 C154.252632,7.27021696 153.966259,13.9408284 153.966259,18.0631164 C153.966259,22.1854043 153.894737,31.0295858 158.833684,31.0295858 C163.701053,31.0295858 163.987368,23.9092702 163.987368,19.5621302 C163.987368,16.7140039 163.844211,13.2662722 163.056842,10.5680473 C162.341053,8.16962525 160.909474,7.27021696 158.905263,7.27021696 Z M97.9915789,0 C101.069474,0 105.077895,0.824457594 107.511579,3.29783037 C110.506287,6.21483021 110.316177,10.1251868 110.303713,14.3385363 L110.303158,24.9585799 C110.303158,28.0315582 111.52,29.3806706 112.665263,31.1045365 C113.094737,31.704142 113.166316,32.4536489 112.665263,32.8284024 C111.305263,33.9526627 109.014737,36.0512821 107.726316,37.1755424 C107.296842,37.5502959 106.724211,37.6252465 106.223158,37.3254438 C104.147368,35.5266272 103.717895,34.6272189 102.572632,32.9033531 C99.1368421,36.5759369 96.6315789,37.7001972 92.1936842,37.7001972 C86.8968421,37.7001972 82.7452632,34.2524655 82.7452632,27.4319527 C82.7452632,22.035503 85.5368421,18.4378698 89.4736842,16.6390533 C92.9094737,15.0650888 97.7052632,14.765286 101.355789,14.3155819 L101.355789,13.4911243 C101.355789,11.9171598 101.498947,10.0433925 100.568421,8.69428008 C99.7810526,7.49506903 98.3494737,6.9704142 97.0610526,6.9704142 C94.6273684,6.9704142 92.48,8.24457594 91.9789474,10.9428008 C91.8357895,11.5424063 91.4778947,12.1420118 90.9052632,12.1420118 L84.8210526,11.4674556 C84.32,11.3175542 83.7473684,10.9428008 83.8905263,10.1183432 C85.3221053,2.3234714 91.9789474,0 97.9915789,0 Z M15.2463158,0 C18.3242105,0 22.3326316,0.824457594 24.7663158,3.29783037 C27.8442105,6.29585799 27.5578947,10.3431953 27.5578947,14.6903353 L27.5578947,24.9585799 C27.5578947,28.0315582 28.7747368,29.3806706 29.92,31.1045365 C30.3494737,31.704142 30.4210526,32.4536489 29.92,32.8284024 C28.56,33.9526627 26.2694737,36.0512821 24.9810526,37.1755424 C24.5515789,37.5502959 23.9789474,37.6252465 23.4778947,37.3254438 C21.4021053,35.5266272 20.9726316,34.6272189 19.8273684,32.9033531 C16.3915789,36.5759369 13.8863158,37.7001972 9.44842105,37.7001972 C4.15157895,37.7001972 0,34.2524655 0,27.4319527 C0,22.035503 2.79157895,18.4378698 6.72842105,16.6390533 C10.1642105,15.0650888 14.96,14.765286 18.6105263,14.3155819 L18.6105263,13.4911243 C18.6105263,11.9171598 18.7536842,10.0433925 17.8231579,8.69428008 C17.0357895,7.49506903 15.6042105,6.9704142 14.3157895,6.9704142 C11.8821053,6.9704142 9.73473684,8.24457594 9.23368421,10.9428008 C9.09052632,11.5424063 8.73263158,12.1420118 8.16,12.1420118 L2.07578947,11.4674556 C1.57473684,11.3175542 1.00210526,10.9428008 1.14526316,10.1183432 C2.57684211,2.3234714 9.23368421,0 15.2463158,0 Z M194.981053,0.299802761 C197.772632,0.299802761 200.564211,1.34911243 202.353684,4.27218935 C203.882406,6.77768385 203.9916,10.8988246 203.9994,14.1152035 L204,36.2011834 C203.928421,36.800789 203.427368,37.2504931 202.783158,37.2504931 L196.484211,37.2504931 C195.911579,37.1755424 195.410526,36.7258383 195.338947,36.2011834 L195.338947,17.7633136 C195.338947,14.0157791 195.768421,8.61932939 191.402105,8.61932939 C189.898947,8.61932939 188.467368,9.66863905 187.751579,11.3175542 C186.892632,13.4161736 186.749474,15.4398422 186.749474,17.7633136 L186.749474,36.0512821 C186.677895,36.7258383 186.105263,37.2504931 185.461053,37.2504931 L179.162105,37.2504931 C178.517895,37.1755424 178.016842,36.6508876 178.016842,36.0512821 L178.016842,2.09861933 C178.088421,1.49901381 178.589474,0.974358974 179.233684,0.974358974 L185.103158,0.974358974 C185.675789,0.974358974 186.105263,1.42406312 186.248421,1.94871795 L186.248421,7.12031558 L186.391579,7.12031558 C188.181053,2.47337278 190.614737,0.299802761 194.981053,0.299802761 Z M101.355789,19.6370809 C96.7747368,19.6370809 91.9789474,20.6863905 91.9789474,26.3076923 C91.9789474,29.1558185 93.4105263,31.1045365 95.8442105,31.1045365 C97.6336842,31.1045365 99.2084211,29.9802761 100.210526,28.1065089 C101.244842,26.1315582 101.348274,24.2649112 101.356031,22.1843644 L101.356156,21.4406474 L101.355789,21.061144 Z M18.6821053,19.6370809 C14.1010526,19.6370809 9.30526316,20.6863905 9.30526316,26.3076923 C9.30526316,29.1558185 10.7368421,31.1045365 13.1705263,31.1045365 C14.96,31.1045365 16.5347368,29.9802761 17.5368421,28.1065089 C18.5711579,26.1315582 18.6745895,24.2649112 18.6823468,22.1843644 Z" id="Shape"></path>
        </g>
    </g>
</svg>